<?xml version="1.0" encoding="UTF-8"?>
<svg id="Layer_1" xmlns="http://www.w3.org/2000/svg" xmlns:xlink="http://www.w3.org/1999/xlink" version="1.1" viewBox="0 0 1190.55 1190.55">
  <!-- Generator: Adobe Illustrator 29.4.0, SVG Export Plug-In . SVG Version: 2.1.0 Build 152)  -->
  <defs>
    <style>
      .st0 {
        fill: url(#linear-gradient);
      }

      .st1 {
        fill: #fff;
      }
    </style>
    <linearGradient id="linear-gradient" x1="37.31" y1="595.28" x2="1144.71" y2="595.28" gradientUnits="userSpaceOnUse">
      <stop offset="0" stop-color="#182234"/>
      <stop offset=".31" stop-color="#1b2537"/>
      <stop offset=".37" stop-color="#1d2739"/>
      <stop offset=".76" stop-color="#1d2739"/>
    </linearGradient>
  </defs>
  <circle class="st0" cx="591.01" cy="595.28" r="553.7"/>
  <path class="st1" d="M807.54,308.32l-28.41,368.82c-2.21,25.28,33.57,29.59,36.51,4.07,2.6-22.58,2.28-47.25,4.06-70.12,6-77.26,11.33-154.69,17.53-231.96,2.03-25.27,6.9-51.87,8.06-76.9.6-12.94,2.2-24.39-12.08-29.7H235.69c-11.21,3.95-15.03,16.28-10.56,26.82l79.97,106.14,3.1,9.03,27.34,359.72,16.18,164.53c4.67,32.33,25.94,58.39,59.02,63.7,101.44-.77,205.79,6.88,307.17,1.79,39-1.96,70.16-22.47,73.42-64.14,1.29-16.58-4.24-35.67-25.01-29.05-14.37,4.58-10.1,16.85-11.5,27.61-1.42,10.98-10.29,25.95-22.25,27.64l-316.82.13c-21.59-2.95-27.35-22.58-30.16-41.31-3.39-22.6-4.79-48.27-6.91-71.31-13.99-151.92-23.01-304.69-35.76-456.48l-65.39-89.03h530.01ZM444.4,452.93c-19.54,6.77-17.39,33.09,3.85,35.99,36.16-2.77,79.01,4.18,114.37-.03,23.03-2.74,24.3-30.08,2.76-36.18l-120.98.22ZM1036.44,508.23c-2.4.5-5.03,2.33-7.07,3.72l-229.25,306.13-105.84-139.59c-16.39-19.41-42.55,2.43-28.11,22.71,38.04,47.09,71.52,99.78,109.81,146.43,10.67,13.01,19.76,26.49,37.48,12.13l241.18-321.2c12.03-14.97,1.18-34.34-18.21-30.34ZM447.11,559.48c-21.31,3.56-21.31,33.1-.2,35.97,28.43,3.88,64.87-2.54,94.16,0,21.45-5.59,20.45-33.38-2.72-36.14-16.85-2-75.27-2.5-91.24.17ZM447.11,667.37c-18.66,3.14-19.76,29.03-1.6,34.67,8.69,2.7,58.18,2.72,68.59,1.3,20.94-2.85,22.61-31.32,3.58-35.71-8.78-2.03-61-1.87-70.57-.26Z"/>
  <path class="st1" d="M807.54,308.32H277.54l65.39,89.03c12.75,151.79,21.77,304.56,35.76,456.48,2.12,23.04,3.52,48.71,6.91,71.31,2.81,18.74,8.58,38.36,30.16,41.31l316.82-.13c11.97-1.7,20.83-16.67,22.25-27.64,1.39-10.75-2.88-23.02,11.5-27.61,20.77-6.62,26.3,12.46,25.01,29.05-3.25,41.68-34.41,62.18-73.42,64.14-101.38,5.09-205.73-2.55-307.17-1.79-33.08-5.31-54.35-31.37-59.02-63.7l-16.18-164.53-27.34-359.72-3.1-9.03-79.97-106.14c-4.46-10.54-.65-22.87,10.56-26.83h597.52c14.28,5.31,12.68,16.75,12.08,29.7-1.16,25.03-6.04,51.62-8.06,76.9-6.2,77.27-11.53,154.7-17.53,231.96-1.78,22.87-1.46,47.54-4.06,70.12-2.94,25.52-38.72,21.21-36.51-4.07l28.41-368.82Z"/>
  <path class="st1" d="M1036.44,508.23c19.38-4.01,30.24,15.37,18.21,30.34l-241.18,321.2c-17.72,14.35-26.8.87-37.48-12.13-38.29-46.65-71.77-99.33-109.81-146.43-14.44-20.29,11.72-42.13,28.11-22.71l105.84,139.59,229.25-306.13c2.03-1.39,4.67-3.22,7.07-3.72Z"/>
  <path class="st1" d="M444.4,452.93l120.98-.22c21.54,6.09,20.27,33.44-2.76,36.18-35.36,4.21-78.21-2.73-114.37.03-21.24-2.89-23.39-29.22-3.85-35.99Z"/>
  <path class="st1" d="M447.11,559.48c15.96-2.67,74.39-2.17,91.24-.17,23.17,2.76,24.18,30.55,2.72,36.14-29.29-2.54-65.73,3.88-94.16,0-21.1-2.88-21.11-32.42.2-35.97Z"/>
  <path class="st1" d="M447.11,667.37c9.57-1.61,61.79-1.77,70.57.26,19.03,4.39,17.36,32.87-3.58,35.71-10.41,1.42-59.9,1.4-68.59-1.3-18.16-5.63-17.06-31.53,1.6-34.67Z"/>
</svg>