<?xml version="1.0" encoding="UTF-8"?>
<svg id="Layer_1" xmlns="http://www.w3.org/2000/svg" xmlns:xlink="http://www.w3.org/1999/xlink" version="1.1" viewBox="0 0 1190.55 1190.55">
  <!-- Generator: Adobe Illustrator 29.4.0, SVG Export Plug-In . SVG Version: 2.1.0 Build 152)  -->
  <defs>
    <style>
      .st0 {
        fill: url(#linear-gradient);
      }

      .st1 {
        fill: #fff;
      }
    </style>
    <linearGradient id="linear-gradient" x1="37.31" y1="595.28" x2="1144.71" y2="595.28" gradientUnits="userSpaceOnUse">
      <stop offset="0" stop-color="#182234"/>
      <stop offset=".31" stop-color="#1b2537"/>
      <stop offset=".37" stop-color="#1d2739"/>
      <stop offset=".76" stop-color="#1d2739"/>
    </linearGradient>
  </defs>
  <circle class="st0" cx="591.01" cy="595.28" r="553.7"/>
  <path class="st1" d="M593.58,601.53c-5.89,42.4,32.07,29.56,58.52,31.97,28.1,2.56,48.41,24.1,54.1,50.97,4.54,53.47,21.68,110.1,25.4,163.05,2.58,36.72-15.96,65.22-53.05,71.41h-267.35c-27.7-2.69-50.21-24.68-54.19-52.03,4.5-64.56,18.4-128.4,27.99-192.4,8.32-21.92,27.44-39.12,51.38-41.13,26.78-2.24,64.89,10.86,59.83-31.89-39.7-5.01-60.99-48.22-36.24-81.58,24.67-33.25,98.4-13.84,135.14-19.03,60.93,9.84,58.95,91.61-1.55,100.66ZM496.04,535.39c-17.11,5.62-15.89,26.92.95,31.64h95.79c17.47-4.54,17.97-28.16-.03-31.81l-96.72.16ZM560.3,601.37h-29.7v16.56c0,14.77-16.23,37.16-29.1,44-31.73,16.86-75.89-14.16-85.92,32.87-10.98,51.52-14.02,107.56-24.41,159.54-.64,15.37,9.42,27.74,24.64,30.29l256.97-.02c14.45-1.46,23.17-13.9,24.95-27.57-9.74-53.71-14.19-111.26-25.87-164.5-8.69-39.58-43.94-19.13-72.75-26.62-17.82-4.63-38.82-26.78-38.82-45.7v-18.85Z"/>
  <path class="st1" d="M364.26,227.15c9.07-9.09,20.84-11.79,33.24-13.01,94.51,3.78,192.72-4.87,286.79.01,24.55,1.28,46.95,13.86,49.61,40.59,4.14,41.74-3.03,90.09-.04,132.53,5.77,36.13-4.12,62.61-43.89,65.67h-292.48c-24.99-1.7-43.03-14.3-45.11-40.55-4.04-50.98,3.09-107.24.06-158.78,1.26-9.64,4.85-19.48,11.81-26.46ZM392.08,250.97l-3.64,3.21v159.85l2.86,2.86h304.9l2.86-2.86-.27-158.44-3.72-4.28-302.98-.35Z"/>
  <path class="st1" d="M312.22,948.92l507.97-.38c10.89,2.39,27.12-1.94,31.63,11.78,4.64,14.13-4.29,23-17.93,23.72H303.85c-23.16-2.06-22.99-31.3-3.28-34.21,3.82-.56,7.89.6,11.66-.9Z"/>
  <path class="st1" d="M808.98,294.39l165.35-.27c22.05,2.48,21.23,31.59,0,34.27h-162.19c-19.46-2.09-21.12-28.11-3.16-34.01Z"/>
  <path class="st1" d="M810.94,367.82l119.89-.5c23.11,4.27,19.62,34.33-3.34,35.3-36.1-2.63-77.47,3.58-112.92-.13-22.79-2.39-24-30.41-3.64-34.67Z"/>
  <path class="st1" d="M814.76,440.65c9.99-1.28,59.16-1.71,67,.88,17.71,5.85,15.74,31.45-3.47,34.1-13.33,1.84-47.67,1.34-61.62.14-26.11-2.25-24.84-32.19-1.92-35.12Z"/>
  <path class="st1" d="M538.2,301.39c-10.03-10.42-25.65-14.49-39.56-10.1-14.42,4.55-22.48,21.34-34.21,29.75-14.86,3.12-48.54-7.14-51.35,14.88-1.7,13.36,7.56,20.02,19.84,21.07,15.94,1.37,43.92,1.08,56.47-9.86,4.52-3.94,16.93-23.36,22.14-22.01,19.13,17.04,26.9,53.91,56.22,56.94,27.39,2.83,33.43-14.87,49.97-31.1,13.95-4.39,48.06,6.65,54.49-10.6,3.45-9.24-1.42-20.16-10.76-23.44-5.83-2.04-41.6-1.95-49.17-1.09-16.75,1.9-27.07,19.9-37.64,30.91l-3.24.95c-4.73-1.23-26.58-39.44-33.19-46.3Z"/>
  <path class="st1" d="M538.2,301.39c6.61,6.86,28.46,45.07,33.19,46.3l3.24-.95c10.57-11,20.89-29.01,37.64-30.91,7.57-.86,43.34-.95,49.17,1.09,9.35,3.28,14.21,14.2,10.76,23.44-6.44,17.25-40.55,6.21-54.49,10.6-16.54,16.23-22.57,33.93-49.97,31.1-29.32-3.03-37.09-39.9-56.22-56.94-5.22-1.35-17.62,18.06-22.14,22.01-12.55,10.94-40.52,11.23-56.47,9.86-12.28-1.05-21.55-7.71-19.84-21.07,2.81-22.02,36.49-11.76,51.35-14.88,11.73-8.41,19.79-25.2,34.21-29.75,13.91-4.38,29.53-.32,39.56,10.1Z"/>
</svg>