<?xml version="1.0" encoding="UTF-8"?>
<svg id="Layer_1" xmlns="http://www.w3.org/2000/svg" xmlns:xlink="http://www.w3.org/1999/xlink" version="1.1" viewBox="0 0 1190.55 1190.55">
  <!-- Generator: Adobe Illustrator 29.4.0, SVG Export Plug-In . SVG Version: 2.1.0 Build 152)  -->
  <defs>
    <style>
      .st0 {
        fill: url(#linear-gradient);
      }

      .st1 {
        fill: #fff;
      }
    </style>
    <linearGradient id="linear-gradient" x1="37.31" y1="595.28" x2="1144.71" y2="595.28" gradientUnits="userSpaceOnUse">
      <stop offset="0" stop-color="#182234"/>
      <stop offset=".31" stop-color="#1b2537"/>
      <stop offset=".37" stop-color="#1d2739"/>
      <stop offset=".76" stop-color="#1d2739"/>
    </linearGradient>
  </defs>
  <circle class="st0" cx="591.01" cy="595.28" r="553.7"/>
  <g>
    <path class="st1" d="M560.1,280.64v40.91c147.54,10.17,273.49,117.94,305.5,262.23,42.71,192.53-83.49,385.5-279.67,414.24-234.87,34.41-431-166.2-389.04-400.09,27.05-150.74,155.13-265.53,307.93-276.38v-40.91h-59.15c-.49,0-6.59-2.86-7.56-3.49-4.37-2.83-8.44-8.73-9.31-13.91-1.65-9.89-1.44-43.5-.27-53.91,1.32-11.77,10.2-18.54,21.52-19.39,53.48-4.02,111.92,3.14,165.93,0,9.99.5,18.96,8.45,20.31,18.38,1.52,11.19,1.25,41.41.08,52.96-.66,6.49-4.06,12.29-9.56,15.87-.97.63-7.07,3.49-7.56,3.49h-59.15ZM511.22,376.05c-214.35,13.59-335.05,255.14-222.02,436.96,127.85,205.66,447.33,165.91,516.63-67.17,58.6-197.1-90.41-382.74-294.61-369.79Z"/>
    <path class="st1" d="M874.09,296.12h61.36c.67,0,5.73,2.55,6.66,3.29,6.25,4.97,6.73,15.61,1.62,21.58-33.22,30.79-63.7,64.71-96.7,95.67-2.87,2.7-18.03,17.26-19.66,17.93-7.89,3.25-15.79-2.08-15.16-10.64.51-6.9,8.32-26.59,10.99-34.42,5.14-15.06,11.44-29.72,16.6-44.76h-63.57c-.41,0-5.34-3.09-6.13-3.82-6.09-5.58-5.94-14.71-1.05-21.05l128.52-125.76c6.48-2.66,12.24-.22,11.68,7.15l-35.18,94.83Z"/>
    <path class="st1" d="M686.94,481.01c14.68-3.04,23.41,7.6,19.34,21.54l-113.1,145.61c-1.31,17.77-1.58,33.81-13.21,48.71-38.7,49.6-117.61,11.86-103.58-50.51,6.95-30.88,37.45-47.64,67.49-45.21,41.85-34.69,82.1-71.43,124.04-106,4-3.3,14.97-13.3,19.02-14.14Z"/>
    <path class="st1" d="M527.73,854.7c9.04-1.88,19.73,2.78,21.24,12.53.93,6.01.78,30.03-.69,35.66-4.05,15.56-28.31,14.69-31.94-.82-2.03-8.65-2.1-26.9.05-35.49,1.21-4.83,6.27-10.82,11.34-11.87Z"/>
    <path class="st1" d="M544.24,409.27c1.54,1.53,4.38,6.89,4.73,9.09.94,5.94.8,29.04-.42,34.82-3.31,15.73-26.39,17.05-31.25,1.28-2.08-6.74-2.4-29.79-.93-36.78,2.57-12.25,18.95-17.31,27.88-8.41Z"/>
    <path class="st1" d="M744.43,643.53c5.04-1.02,20.76-.79,26.27-.24,23.75,2.4,22.81,32.93.02,35.37-8.29.89-26.68.84-33.47-4.14-10.77-7.9-6.99-28.12,7.17-31Z"/>
    <path class="st1" d="M293.41,643.59c16.01-1.99,47.91.07,38.6,24.23-4.95,12.85-27.3,12.11-38.79,10.72-22.93-2.79-23.67-31.97.19-34.94Z"/>
  </g>
</svg>