<?xml version="1.0" encoding="UTF-8"?>
<svg id="Layer_1" xmlns="http://www.w3.org/2000/svg" xmlns:xlink="http://www.w3.org/1999/xlink" version="1.1" viewBox="0 0 1190.55 1190.55">
  <!-- Generator: Adobe Illustrator 29.4.0, SVG Export Plug-In . SVG Version: 2.1.0 Build 152)  -->
  <defs>
    <style>
      .st0 {
        fill: url(#linear-gradient);
      }

      .st1 {
        fill: #fff;
      }
    </style>
    <linearGradient id="linear-gradient" x1="37.31" y1="595.28" x2="1144.71" y2="595.28" gradientUnits="userSpaceOnUse">
      <stop offset="0" stop-color="#182234"/>
      <stop offset=".31" stop-color="#1b2537"/>
      <stop offset=".37" stop-color="#1d2739"/>
      <stop offset=".76" stop-color="#1d2739"/>
    </linearGradient>
  </defs>
  <circle class="st0" cx="591.01" cy="595.28" r="553.7"/>
  <path class="st1" d="M637.65,521.79c20.42-3.64,42.32-1.27,63.25-1.71,29.91-.63,60.73-2.96,90.64-3.71,23.2-.58,41.82,2.71,41.16,30.41-79.32,125.9-167.36,246.44-253.49,367.87-19.86,28-38.6,59.65-59.41,86.57-2.69,3.47-5.32,8.33-9.06,10.52-15.77,9.28-36.15-1.12-38.54-18.85l72.85-323.34c-7.62-1.45-15.09,1.6-22.17,1.84-37.99,1.33-76.06.67-114.08,1.63-14.84.37-34.79,4.01-49.32,3.2-16.92-.94-23.24-17.09-20.5-32.1,89.63-128.24,175.14-260.03,265.16-388.16,17.13-24.39,40.96-62.95,61.06-83.14,15.74-15.81,41.9-4.92,43.49,16.74-27.58,109.78-52.05,220.56-71.03,332.22ZM767.59,564.54c-11.55.31-23.22-.46-34.79-.09-37.44,1.18-90,6.18-126.36,1.89-11.8-1.39-21.5-15.59-20.29-27.36,16.04-81.67,35.04-162.92,51.1-244.56.55-2.8,1.34-6.27-2.21-2.2l-230.6,333.74c-.74,4.03,1.76,2.46,4.41,2.65,42.99,3.12,102.31-2.95,147.86-3.49,5.28-.06,10.03-2.2,15.97-1.98,14.44.55,24.67,9.95,25.13,24.45l-56.28,242.71,226.07-325.76Z"/>
  <path class="st1" d="M220.6,499.08l147.22-.31c24.7,6.02,24.69,38.26,0,44.28-45.02-4.25-102.14,6.14-145.71-.04-25.56-3.63-26.14-39.8-1.51-43.92Z"/>
  <path class="st1" d="M720.84,780.35c38.47,2.85,86.71-5.35,124.03-.27,27.84,3.79,27.32,42.25,0,45.97-38.12-3.31-85.52,5.04-122.52,0-27.12-3.7-27.15-41.39-1.51-45.7Z"/>
  <path class="st1" d="M306.05,402.95l123.78-.02c21.79,5.38,20.94,40.52-1.49,43.98-35.68,5.5-85.16-3.53-122.3-.31-22.97-5.25-24.24-39.6,0-43.66Z"/>
  <path class="st1" d="M790.27,686c18.4-3.07,96.06-2.84,114.83.04,25.31,3.88,29.18,35.08,5.7,43.94l-123.71,1.11c-25.41-6.81-23-40.72,3.18-45.09Z"/>
</svg>