<?xml version="1.0" encoding="UTF-8"?>
<svg id="Layer_1" xmlns="http://www.w3.org/2000/svg" xmlns:xlink="http://www.w3.org/1999/xlink" version="1.1" viewBox="0 0 1190.55 1190.55">
  <!-- Generator: Adobe Illustrator 29.4.0, SVG Export Plug-In . SVG Version: 2.1.0 Build 152)  -->
  <defs>
    <style>
      .st0 {
        fill: url(#linear-gradient);
      }

      .st1 {
        fill: #fff;
      }
    </style>
    <linearGradient id="linear-gradient" x1="37.31" y1="595.28" x2="1144.71" y2="595.28" gradientUnits="userSpaceOnUse">
      <stop offset="0" stop-color="#182234"/>
      <stop offset=".31" stop-color="#1b2537"/>
      <stop offset=".37" stop-color="#1d2739"/>
      <stop offset=".76" stop-color="#1d2739"/>
    </linearGradient>
  </defs>
  <circle class="st0" cx="591.01" cy="595.28" r="553.7"/>
  <path class="st1" d="M934.32,304.99c63.44-7.16,97.65,61.97,57.05,109.19l-112.09,135.76c10.96,11.41,26,16.06,23.26,35.02-.9,6.24-20.09,28.55-25.41,34.17-21.56,22.77-32.72,5.82-51.1-9.67h-2.11s-108.03,130.37-108.03,130.37c-8.63,6.75-19.71,11.96-30.78,12.84-14.08,1.12-26.22-3.32-37.86,7.89-8.01,7.71-19.42,27.61-27.67,32.98-13.52,8.81-32-6.28-28.45-22.07,1.37-6.11,22.85-26.44,27.88-33.83,9.14-13.43,2.73-20.5,1.7-34.5-1.73-23.62,4.56-33.26,18.1-51.02l96.71-116.15c-10.55-14.74-39.4-23.3-30.24-46.13,1.84-4.58,23.87-31.32,28.17-34.61,17.27-13.22,29.82,3.88,42.6,13.89l2.13.04,120.17-146.93c8.99-9.02,23.28-15.8,35.97-17.23ZM684.53,641.96h77.14l42.01-50.54-46.26-38.81-72.88,89.35Z"/>
  <path class="st1" d="M706.87,331.29H250.44l53.14,85.7v434.07c1.75,23.1,16.33,41.77,39.14,47.05l132.79,1.27c14.84,6.28,10.62,26.25-5.38,26.64-68.74-6.24-181.44,28.54-193.14-70.69l.03-430.93-62.95-98.77c-6.77-9.66.2-21.11,11.31-22.06l497.74.3c5.56,1.73,9.66,6.02,10.38,11.97l-.08,98.91c-2.17,9.4-14.24,11.99-21.59,6.81-1.44-1.02-4.95-5.58-4.95-6.75v-83.52Z"/>
  <path class="st1" d="M399.39,511.1v52.13h50.54c4.84,0,10.24,9.59,10.03,14.29-.27,5.95-7.32,13.38-13.22,13.38h-47.35v51.07h50.54c1.17,0,7.03,4.41,7.99,5.85,3.36,5.06,2.95,12.3-1.05,16.75-.67.75-5.51,4.01-5.87,4.01h-51.6v50.54l1.6,1.6h50.01c.36,0,5.19,3.26,5.87,4.01,7.05,7.83,2.32,21.02-8.09,22.5-19.75-1.94-45.75,2.96-64.74.03-6.87-1.06-10.73-7.92-11.29-14.24l.77-238.72c2.08-5.62,5.57-8.85,11.61-9.67,10.91-1.48,52.96-1.61,63.49.16s14.94,13.15,9.14,21.39c-1.01,1.44-5.58,4.95-6.75,4.95h-51.6Z"/>
  <path class="st1" d="M578.83,814.42l3.01.98c13.18,23.19,44.65,57.29,45.3,84.53,1.03,43.38-54.97,65.69-83.03,31.93-24.49-29.47-3.37-60.34,13.37-86.6,2.49-3.9,19.55-30.35,21.36-30.84Z"/>
  <path class="st1" d="M718.32,780.48c7.07-1.05,13.7,4.12,15.08,11.04-1.76,43.33,10.39,85.94-27.09,117.47-9.39,7.9-40.43,26.88-46.6,7.31-4.73-14.98,10.31-16.65,19.53-21.62,41.36-22.33,22.8-65.59,27.74-102.06.8-5.94,5.23-11.22,11.36-12.13Z"/>
</svg>