<?xml version="1.0" encoding="UTF-8"?>
<svg id="Layer_1" xmlns="http://www.w3.org/2000/svg" xmlns:xlink="http://www.w3.org/1999/xlink" version="1.1" viewBox="0 0 1190.55 1190.55">
  <!-- Generator: Adobe Illustrator 29.4.0, SVG Export Plug-In . SVG Version: 2.1.0 Build 152)  -->
  <defs>
    <style>
      .st0 {
        fill: url(#linear-gradient);
      }

      .st1 {
        fill: #fff;
      }
    </style>
    <linearGradient id="linear-gradient" x1="37.31" y1="595.28" x2="1144.71" y2="595.28" gradientUnits="userSpaceOnUse">
      <stop offset="0" stop-color="#182234"/>
      <stop offset=".31" stop-color="#1b2537"/>
      <stop offset=".37" stop-color="#1d2739"/>
      <stop offset=".76" stop-color="#1d2739"/>
    </linearGradient>
  </defs>
  <circle class="st0" cx="591.01" cy="595.28" r="553.7"/>
  <g>
    <path class="st1" d="M556.49,229.92c228.6-17.1,441.15,171.53,402.42,408.14-3.55,21.69-15.98,43.18-41.11,30.19-22.66-11.71-10.86-36.18-10.03-54.64,15.88-352.31-456.24-455.99-599.1-152.95-84.62,179.5,20.24,396.27,213.52,439.22,19.01,4.22,43.41,4.07,60,8.64,24.89,6.86,23.49,52.49-9.12,53.13-95.29,1.85-207.37-64.24-265.91-136.54-180.66-223.12-37.85-573.72,249.33-595.2Z"/>
    <path class="st1" d="M743.21,380.42c27.08-5.51,43.43,23.97,25.26,44.32l-105.82,121.11c19.14,31.44,22.27,65.23,1.79,97.08-35.43,55.09-122.41,45.82-147.32-14.41-28.34-68.51,32.82-133.67,102.74-114.13l114.47-129.52c2.71-1.58,5.81-3.83,8.88-4.45ZM590.8,563.43c-36.64,3.62-36.47,57.29-4.26,62.38,51.74,8.18,49.15-66.81,4.26-62.38Z"/>
  </g>
</svg>