<?xml version="1.0" encoding="UTF-8"?>
<svg id="Layer_1" xmlns="http://www.w3.org/2000/svg" xmlns:xlink="http://www.w3.org/1999/xlink" version="1.1" viewBox="0 0 1190.55 1190.55">
  <!-- Generator: Adobe Illustrator 29.4.0, SVG Export Plug-In . SVG Version: 2.1.0 Build 152)  -->
  <defs>
    <style>
      .st0 {
        fill: url(#linear-gradient);
      }

      .st1 {
        fill: #fff;
      }
    </style>
    <linearGradient id="linear-gradient" x1="37.31" y1="595.28" x2="1144.71" y2="595.28" gradientUnits="userSpaceOnUse">
      <stop offset="0" stop-color="#182234"/>
      <stop offset=".31" stop-color="#1b2537"/>
      <stop offset=".37" stop-color="#1d2739"/>
      <stop offset=".76" stop-color="#1d2739"/>
    </linearGradient>
  </defs>
  <circle class="st0" cx="591.01" cy="595.28" r="553.7"/>
  <path class="st1" d="M290.4,356.97v234.02c0,.93,5.17,7.29,6.4,8,6.72,3.86,19.52.21,19.52-8v-235.46l31.14,43.01c15.07,5.36,23.07-6.25,15.84-20.15-8.09-15.55-36.34-56.82-47.83-70.26-7.71-9.02-13.78-10.07-22.84-1.48-13.27,24.34-36.35,47.87-49.25,71.72-9.6,17.74,8.36,29.02,19.64,16.75,9.96-10.83,16.4-27.73,27.37-38.15ZM866.45,355.53v235.46c0,.38,3.09,5.79,3.94,6.54,3.97,3.55,12.37,4.08,16.8,1.24,1.23-.79,5.18-7.08,5.18-7.78v-234.02l30.6,42.12c11.1,4.83,20.18-3.96,18.09-15.15l-49.53-74.36c-7.43-8.81-13.73-12.78-23.44-3.52l-51.99,77.63c-2.45,11.73,6.94,20.34,18.3,15.4,7.37-3.2,23.59-36.99,32.04-43.56Z"/>
  <path class="st1" d="M602.91,518.26h82.81c22.48,0,52.27,20.81,60.02,42.23l117.19,355.17c5.07,32.42-22.89,67.89-56.18,69.26l-436.42-.05c-31.47-5.15-51.01-34.27-50.82-65.11l116.33-354.71c6.63-23.49,35.23-46.78,59.79-46.78h79.93v-86.41c-88.65-12.07-129.82-118.43-71.3-187.23,60.57-71.21,180.49-39.56,198.83,51.79,2.67,13.29,8.31,46.34-13.02,44.8-16.23-1.17-11.23-19.16-12.28-29.59-6.23-61.8-74.83-97.67-129.47-67.59-65.11,35.84-54.27,135.52,16.85,157.17,10.21,3.11,26.66,2.05,33.51,8.26.95.86,4.25,5.15,4.25,5.83v102.97ZM494.55,547.44c-12.47,2.13-22.96,8.63-29.64,19.32l-116.25,350.34c-4.28,19.79,7.93,39.44,28.82,40.44h424.93c22.93-1.98,37.1-20.79,31.7-43.33-40.73-116.9-75.8-236.18-118.88-352.03-7.59-8.82-18.12-13.53-29.53-15.11l-191.15.36Z"/>
  <path class="st1" d="M523.7,857.41v-150.49c1.92.36,2.95,2.44,4.07,3.85,18.28,23.12,32.63,56.02,51.5,78.11,8.28,9.7,16.05,10.46,24.23,0l55.57-81.96v149.05c0,1.66,5.54,7.39,7.57,8.26,11.65,4.98,18.37-3.45,19.63-14.18,6.55-55.64-4.62-123.03.22-179.91-1.58-17.87-12.35-19.91-27.52-14.44-21.95,29.35-40.36,62.68-62.09,92-1.29,1.74-4.18,7.28-6.2,6.76l-64.1-97.22c-13.31-7.54-28.33-6.41-30.25,11.52-6.07,56.6,4.55,123.75,0,181.46,2.28,20.45,25.14,17.74,27.37,7.2Z"/>
  <path class="st1" d="M523.7,857.41c-2.23,10.54-25.09,13.25-27.37-7.2,4.55-57.71-6.07-124.86,0-181.46,1.92-17.93,16.94-19.05,30.25-11.52l64.1,97.22c2.02.53,4.91-5.02,6.2-6.76,21.73-29.31,40.14-62.65,62.09-92,15.17-5.47,25.94-3.43,27.52,14.44-4.84,56.88,6.33,124.27-.22,179.91-1.26,10.74-7.98,19.17-19.63,14.18-2.03-.87-7.57-6.6-7.57-8.26v-149.05l-55.57,81.96c-8.18,10.46-15.95,9.7-24.23,0-18.87-22.09-33.22-54.99-51.5-78.11-1.12-1.41-2.15-3.49-4.07-3.85v150.49Z"/>
</svg>