<?xml version="1.0" encoding="UTF-8"?>
<svg id="Layer_1" xmlns="http://www.w3.org/2000/svg" xmlns:xlink="http://www.w3.org/1999/xlink" version="1.1" viewBox="0 0 1190.55 1190.55">
  <!-- Generator: Adobe Illustrator 29.4.0, SVG Export Plug-In . SVG Version: 2.1.0 Build 152)  -->
  <defs>
    <style>
      .st0 {
        fill: url(#linear-gradient);
      }

      .st1 {
        fill: #fff;
      }
    </style>
    <linearGradient id="linear-gradient" x1="37.31" y1="595.28" x2="1144.71" y2="595.28" gradientUnits="userSpaceOnUse">
      <stop offset="0" stop-color="#182234"/>
      <stop offset=".31" stop-color="#1b2537"/>
      <stop offset=".37" stop-color="#1d2739"/>
      <stop offset=".76" stop-color="#1d2739"/>
    </linearGradient>
  </defs>
  <circle class="st0" cx="591.01" cy="595.28" r="553.7"/>
  <g>
    <path class="st1" d="M1058.73,500.88c3.77,3.77,5.47,12.91,5.96,18.3,2.07,22.77,2.53,74.99-.08,97.21-1.67,14.25-10.86,20.11-24.32,21.64-28.43,3.24-62.43-2.31-91.49-.11-11.99,25.44-32.66,34.35-60.44,30.74,16.02,173.32-107.24,322.14-282,332.06-120.63,6.84-237.63,1.86-327.32-87.83-79.88-79.88-90.88-180.1-82.7-289,9.84-131,139.66-143.66,244.06-134.07,13.42,1.23,22.53,7.61,24.19,21.77,4.12,35.04-2.72,78.46-.6,114.41-6.22,27.78-46.68-1.08-57.05,37.42-15.02,55.79,27.47,121.08,79.87,140,34.05,12.29,113.53,12.44,147.61.67,54.92-18.97,89.08-75.83,84.31-133.04-3.18-4.58-23.45-1.66-30.57-2.61-16.61-2.22-37.32-19.78-34.7-38.07-24.1-3.99-80.22,13.07-84.31-21.65-1.4-11.91-1.37-79.65,1.98-87.5,8.21-19.21,64.01-7.78,82.34-10.85-4.04-34.91,23.73-51.27,54.79-53.72,49.38-3.89,137.21-4.03,186.44.13,19.32,1.63,36.61,6.66,48.45,23.04,3.19,4.41,3.46,13.29,8.1,14.88,20.69,3.98,94.77-6.51,107.45,6.17ZM898.6,507.82h-194.05v109.79h68.94c-3.39,54.86,2.45,107.06-26.03,156.53-50.74,88.15-142.7,96.35-235.64,88.54-92.99-7.81-169.17-99.18-159.3-192.42,3.41-32.22,25.51-73.16,60.96-75.63v-53.62h-85.53c-39.18,0-77.62,53.64-80.52,90.55-10.08,128.08,22.45,247.26,150.78,298.78,65.6,26.34,232.46,25.32,297.04-4.15,110.58-50.46,156.8-172.42,140.14-288.83-.71-8.99,14.07-19.75,21.08-19.75h42.13v-109.79ZM1013.49,543.56h-63.83v43.41h63.83v-43.41ZM653.5,561.39l-33.27.03.02,17.93,33.27-.03-.02-17.93Z"/>
    <path class="st1" d="M499.62,235.23l329.38,1.33c25.66,17.95,13.92,46.07-15.97,49.09-96.33,9.73-208.35-7.19-306.35.03-29.66.47-35.86-45.31-7.05-50.45Z"/>
    <path class="st1" d="M400.03,342.45l285.23-.44c14.04,3.25,21.08,14.92,19.46,29.28-1.94,17.11-17.39,20.27-32.12,21.6-82.91,7.44-176.33-5.44-260.36.01-33.63.08-44.86-38.28-12.21-50.45Z"/>
  </g>
</svg>