<?xml version="1.0" encoding="UTF-8"?>
<svg id="Layer_1" xmlns="http://www.w3.org/2000/svg" xmlns:xlink="http://www.w3.org/1999/xlink" version="1.1" viewBox="0 0 1190.55 1190.55">
  <!-- Generator: Adobe Illustrator 29.4.0, SVG Export Plug-In . SVG Version: 2.1.0 Build 152)  -->
  <defs>
    <style>
      .st0 {
        fill: url(#linear-gradient);
      }

      .st1 {
        fill: #fff;
      }
    </style>
    <linearGradient id="linear-gradient" x1="37.31" y1="595.28" x2="1144.71" y2="595.28" gradientUnits="userSpaceOnUse">
      <stop offset="0" stop-color="#182234"/>
      <stop offset=".31" stop-color="#1b2537"/>
      <stop offset=".37" stop-color="#1d2739"/>
      <stop offset=".76" stop-color="#1d2739"/>
    </linearGradient>
  </defs>
  <circle class="st0" cx="591.01" cy="595.28" r="553.7"/>
  <g>
    <path class="st1" d="M560.92,178.76c211.39-8.83,414.98,162.14,415.55,380.01.09,35.04-39.86,47.24-46.93-3.29-12.26-87.67-23.36-143.92-84.14-212.92-183.71-208.53-541.52-131.03-610.72,139.37-78.86,308.14,239.81,558.75,519.78,410.7,21.34-1.38,33.57,23.18,17.43,38.27-7.75,7.24-36.67,18.5-47.86,22.73-186.18,70.31-397.32-5.13-493.44-178.61-145.8-263.16,29.08-583.69,330.34-596.26Z"/>
    <path class="st1" d="M560.81,296.31c70.02-9.6,122.17,37.95,127.29,106.48,5.96,79.68-4.74,166.64-.06,247.12,89.67,96.09,35.15,253.76-98.48,263.4-148.55,10.72-218.87-159.02-119.29-263.41,4.7-80.47-6.01-167.43-.05-247.11,3.78-50.51,37.91-99.26,90.58-106.48ZM575.53,340.44c-28.23,1.16-48.41,19.99-56.82,46.12l-1.48,277.93c-14.55,24.5-35.65,36.57-44.82,66.94-41.26,136.55,165.85,195.84,209.82,65.7,18.25-54.03-5.37-92.57-41.22-129.59-5.72-86.54,7.39-182.26.04-267.69-3.09-35.96-28.6-60.93-65.51-59.42Z"/>
    <path class="st1" d="M943,631.46c15.58-4.69,30.47,2.35,33.07,18.66,4.41,27.73,1.27,67.74,3.14,96.86,2.88,44.77,19.72,107.65-7.63,145.37-47.85,65.98-147.41,51.11-172.63-26.88-19.27-59.59,23.77-85.63,56.63-127.36,12.32-15.65,76.97-103.52,87.43-106.66ZM935.03,710.26l-98.67,111.59c-14.94,70.85,80.61,94.48,109.15,32.57l-10.48-144.16Z"/>
    <path class="st1" d="M597.16,712.87c45.5,5.5,45.98,67.03,14.18,89.84-23.64,16.96-57.81,14.32-76.28-8.64-22.02-27.37-15.2-82.19,26.46-80.89l2.66-239.96c14.07-12.06,31.67-3.24,32.7,14.9l.27,224.74ZM568.15,749.23c-12.21,12.22,8.37,33.43,20.12,18.66,11.77-14.79-9.7-29.08-20.12-18.66Z"/>
    <path class="st1" d="M590.42,532.57c13.14-2.95,54.57-3.88,43.68,19.58-3.69,7.94-37.86,7.86-45.54,5.62-11.72-3.42-12.22-22.04,1.86-25.2Z"/>
    <path class="st1" d="M588.57,632.76c4.94-1.14,35.56-1.29,40.03,0,8.49,2.44,9.76,17.57,2.36,21.98-3.93,2.34-39.18,2.91-44.28,1.38-8.84-2.65-9.97-20.63,1.89-23.36Z"/>
    <path class="st1" d="M590.41,582.67c8.74-1.99,23.54-1.6,24.78,9.74,1.74,15.94-11.73,18.39-24.77,15.43-13.35-3.02-14.67-21.85,0-25.18Z"/>
  </g>
</svg>