<?xml version="1.0" encoding="UTF-8"?>
<svg id="Layer_1" xmlns="http://www.w3.org/2000/svg" xmlns:xlink="http://www.w3.org/1999/xlink" version="1.1" viewBox="0 0 1190.55 1190.55">
  <!-- Generator: Adobe Illustrator 29.4.0, SVG Export Plug-In . SVG Version: 2.1.0 Build 152)  -->
  <defs>
    <style>
      .st0 {
        fill: url(#linear-gradient);
      }

      .st1 {
        fill: #fff;
      }
    </style>
    <linearGradient id="linear-gradient" x1="37.31" y1="595.28" x2="1144.71" y2="595.28" gradientUnits="userSpaceOnUse">
      <stop offset="0" stop-color="#182234"/>
      <stop offset=".31" stop-color="#1b2537"/>
      <stop offset=".37" stop-color="#1d2739"/>
      <stop offset=".76" stop-color="#1d2739"/>
    </linearGradient>
  </defs>
  <circle class="st0" cx="591.01" cy="595.28" r="553.7"/>
  <g>
    <path class="st1" d="M695.67,838.45c-1.03,0-1.88.83-1.89,1.86-.29,22.8,1.45,45.92,20.82,60.75,20.89,15.99,33.86,7.78,56.29,10.43,17.67,2.08,20.42,26.39-4.61,28.68-.08,0-.17.01-.25,0-106.24-3.34-214.96,4.22-320.9.02-10.08-.4-21.55-1.99-31.77-2.84-.21-.02-.41-.06-.6-.15-7.21-3.11-8.21-12.25-5.42-18.95,4.47-10.73,38.72-5.42,49.85-7.45,21.22-3.87,35.34-23.42,38.93-43.68.76-4.31,2.67-19.44,2.44-23.13-.1-1.69-.88-5.54-2.52-5.54h-193.81c-29.07,0-58.98-30.66-61.14-59.5,0-.06,0-.12,0-.17l-.07-441.43c0-.1,0-.2.02-.3,4.53-30.93,31.52-55.91,62.61-59.41.08,0,.16-.01.24-.01,181.57.1,363.38.8,544.74-1.61,50.16-.67,87.58,5.87,100.88,61.03.04.15.05.31.05.46l-.12,444.22c0,.13-.01.26-.04.38-6.38,32.93-37.6,56.34-70.52,56.34h-183.21ZM919.1,747.91c1.04,0,1.89-.84,1.89-1.88.47-107.66-.66-215.39-.09-323.06.02-4.54,1.7-8.43,1.73-12.57.14-20.88,2.01-57.59-2.74-76.82-3.36-13.61-20.1-28.51-34.59-28.95H308.59s-.09,0-.14.01c-24.26,1.39-40.11,19.86-40.48,43.68-.1,6.36,1.71,11.58,1.76,17.45,1.01,126.73-.89,253.54-.1,380.26,0,1.04.85,1.88,1.89,1.88h647.57ZM918.97,776.49l-646.76-1.61c-.96,0-1.78.72-1.89,1.67-1.92,16.78,15.56,32.98,31.77,34.88.09.01.17.01.26.01l420.86-.09s.09,0,.13,0c51.28-3.99,112.76,5.96,163.03-.36,17.25-2.17,32.86-14.67,34.48-32.43.1-1.11-.77-2.08-1.88-2.08ZM509.03,911.52h172.7c1.58,0,2.48-1.83,1.49-3.05-15.34-18.95-16.17-42.95-17.96-66.63-.07-.97-.88-1.73-1.85-1.75-29.3-.55-58.7.54-88.02.01-3.76-.07-7.23-1.64-10.99-1.72-5.34-.12-30.57-.81-36.9.94-.79.22-1.34.93-1.37,1.76-.73,23.61-2.83,48.83-18.55,67.35-1.03,1.22-.15,3.09,1.45,3.09Z"/>
    <path class="st1" d="M549.54,412.71h29.58c1.04,0,1.89-.85,1.89-1.89v-37.03c0-1.22,1.85-11.72,2.33-13.56,4.39-16.66,26.26-8.89,26.26,2.44v48.15c0,1.04.85,1.89,1.89,1.89h31.39c.97,0,1.79-.73,1.88-1.69,1.42-15.42-7.74-47.14,3.72-57.12,5.03-4.38,13.25-4.42,17.8.54,7.09,7.73,4.68,42.87,5.18,56.46.04,1.02.87,1.82,1.89,1.82h22.83c1.27,0,8.73,4.4,10.17,5.72,8.94,8.26,5.03,29.09,4.74,35.4-.05,1,.68,1.87,1.68,1.97,13.91,1.38,49.71-3.9,58.12,2.93,8.12,6.6,2.45,19.89-6.74,21.95-9.24,2.08-25.84-.13-36.27.27-4.9.19-9.29,2.62-13.93,1.28-1.28-.37-2.54.6-2.45,1.93.7,10.17,1.15,19.45.02,29.69-.12,1.13.74,2.11,1.87,2.11h51.09c1.3,0,6.8,4.83,7.87,6.43,6.66,9.97-3.68,20.58-14.23,20.58h-44.97c-1.04,0-1.89.85-1.89,1.89v29.58c0,1.04.85,1.89,1.89,1.89h52.92c4.04,0,8.48,9.38,8.28,13.25-.2,3.96-6.41,12.16-9.86,12.16h-51.33c-1.04,0-1.89.85-1.89,1.89v29.09c0,2.18-10.83,11.91-13.5,11.91h-24.32c-1.04,0-1.89.85-1.89,1.89v51.33c0,7.24-14.54,13.3-22.12,7.82-10.33-7.47-6.54-44.3-5.09-58.97.11-1.11-.76-2.07-1.88-2.07h-30.98c-1.04,0-1.89.85-1.89,1.89v49.74c0,8.58-12.39,14.55-20.62,11.08-1.58-.67-7.97-8.27-7.97-9.49v-51.33c0-1.04-.85-1.89-1.89-1.89h-29.58c-1.04,0-1.89.85-1.89,1.89v46.56c0,5.18-9.36,13.59-15.09,13.59-7.34,0-13.5-8.88-13.5-15.18v-44.97c0-1.07-.89-1.91-1.96-1.89-11.6.26-22.56,4.05-32.26-4.71-1.25-1.13-5.5-6.21-5.5-7.21v-29.09c0-1.04-.85-1.89-1.89-1.89h-51.33c-7.92,0-12.17-11.64-9.13-18.65.59-1.36,5.35-6.76,5.95-6.76h54.51c1.04,0,1.89-.85,1.89-1.89v-29.58c0-1.04-.85-1.89-1.89-1.89h-48.15c-8.45,0-15.5-10.65-12.83-19.13.53-1.69,5.61-7.88,6.47-7.88h54.51c1.04,0,1.89-.85,1.89-1.89v-31.17c0-1.04-.85-1.89-1.89-1.89h-51.33c-11.49,0-19.73-23.56,3.12-25.48,15.44-1.29,32.57.94,48.32.16,1-.05,1.78-.89,1.78-1.89v-27.6c0-3.84,11.05-13.5,15.09-13.5h22.73c1.04,0,1.89-.85,1.89-1.89v-49.74c0-3.8,9-10.43,13.5-10.42,5.48.02,15.09,6.89,15.09,12v48.15c0,1.04.85,1.89,1.89,1.89ZM680.8,439.72h-172.55c-1.04,0-1.89.85-1.89,1.89v174.14c0,1.04.85,1.89,1.89,1.89h172.64c1.24,0,1.91-1.14,1.81-2.37,0,0,0,0,0-.01v-173.65c0-1.04-.85-1.89-1.89-1.89Z"/>
  </g>
</svg>