<?xml version="1.0" encoding="UTF-8"?>
<svg id="Layer_1" xmlns="http://www.w3.org/2000/svg" version="1.1" viewBox="0 0 508.87 173.93">
  <!-- Generator: Adobe Illustrator 29.4.0, SVG Export Plug-In . SVG Version: 2.1.0 Build 152)  -->
  <defs>
    <style>
      .st0 {
        fill: #6c6c6c;
      }

      .st1 {
        fill: #e8e7e7;
        font-family: DINNeuzeitGroteskStd-Light, 'DIN 30640 Std';
        font-size: 23.64px;
        font-weight: 300;
        letter-spacing: .06em;
      }

      .st2 {
        fill: #5b5b5b;
      }

      .st3 {
        fill: #aaa;
      }

      .st4 {
        fill: #fff;
      }

      .st5 {
        fill: #868686;
      }

      .st6 {
        fill: #2f5b7d;
      }

      .st7 {
        fill: #dcdcdc;
      }
    </style>
  </defs>
  <text class="st1" transform="translate(215.25 134.23) rotate(-.03)"><tspan x="0" y="0">The metrology guide</tspan></text>
  <path class="st7" d="M112.99,33.96l-16.73,23c-.23.28-.35.16-.61.05-.48-.22-3.16-2.28-3.1-2.66,5.47-7.68,11.44-15.05,16.6-22.92l3.84,2.53Z"/>
  <path class="st7" d="M119.81,40.03c.41,1.08,2.4,2.57,2.79,3.32.11.21.18.34,0,.55l-21.68,18.25-2.74-2.73v-.55s21.64-18.84,21.64-18.84Z"/>
  <polygon class="st7" points="136.31 90.19 135.32 95.19 106.64 90.04 107.48 86.03 136.31 90.19"/>
  <rect class="st7" x="116.22" y="85.68" width="4.78" height="29.84" transform="translate(-17.26 176.27) rotate(-69.42)"/>
  <path class="st7" d="M129.89,55.51l-25.44,13.05-1.93-3.45,24.84-13.68c.98-.31,2.77,3.67,2.53,4.08Z"/>
  <path class="st7" d="M133.51,63.87l1.08,3.79-.42.58-27.51,7.23c-.05-.94-.82-2.41-.85-3.2-.02-.44,0-.73.46-.89l27.24-7.52Z"/>
  <polygon class="st7" points="101.66 27.28 89.74 53.05 85.9 50.98 97.67 25.37 101.66 27.28"/>
  <rect class="st7" x="107.34" y="77.7" width="29.15" height="4.68" transform="translate(-4.5 7.32) rotate(-3.37)"/>
  <path class="st3" d="M86.11,114.61l9.44,27.56-3.51,1.48-.5-.23-8.96-27.11c-.43-.95,3.28-1.88,3.53-1.7Z"/>
  <path class="st7" d="M88.91,22.56l-6.23,27.17-.53.26-3.49-.83,6.23-27.42c1.23.63,2.64.91,4.02.82Z"/>
  <rect class="st7" x="71.16" y="20.62" width="4.17" height="28"/>
  <rect class="st3" x="76.46" y="116.52" width="3.9" height="29.72" transform="translate(-13.46 9.03) rotate(-6.07)"/>
  <polygon class="st3" points="70.89 116.8 67.57 145.9 64.14 145.36 67.29 116.52 70.89 116.8"/>
  <path class="st3" d="M63.41,115.69l-9.01,26.89c-.58.74-2.84-.65-3.74-.56l9.15-27.44,3.6,1.11Z"/>
  <rect class="st2" x="61.13" y="21.59" width="3.87" height="28.31" transform="translate(-5.82 13.16) rotate(-11.39)"/>
  <path class="st5" d="M48.27,106.99c.5.38,2.07,1.38,1.72,2.05l-19.83,20.12-2.77-1.83.27-.69,20.38-20.09c.22-.09.07.31.24.44Z"/>
  <path class="st2" d="M57.04,52.77l-11.34-25.69c-.05-.57,2.59-1.61,3.11-1.45l11.44,25.18-.16.42-3.06,1.53Z"/>
  <path class="st5" d="M38.19,135.92l15.01-24.62c.61-.35,3.09,1.49,2.9,2.19-.15.54-3.37,4.71-4,5.72-3.08,4.9-6.33,12.03-9.68,16.37-.47.61-1.19,1.01-1.61,1.73l-2.61-1.39Z"/>
  <path class="st2" d="M31.14,44.58c5.63,4.94,11.13,10.06,17.02,14.71l-1.94,2.63-21.49-18.57c-.12-.29,1.66-2.47,2.23-2.43,1.4,1.21,2.79,2.43,4.18,3.65Z"/>
  <path class="st2" d="M53.71,54.99l-2.63,1.64-16.76-22.53,2.47-2c.38-.1.76.48.99.72,5.71,5.98,9.97,15.23,15.68,21.46l.25.71Z"/>
  <path class="st5" d="M40.4,94.07l1.11,3.32-26.88,9.98c-.22-1.21-1.02-2.31-.81-3.58l26.58-9.72Z"/>
  <path class="st0" d="M43.73,64.97c-.34.53-1.59,3.39-2.23,3.21l-23.79-13.38c-.26-.48.93-2.81,1.21-2.83l24.81,13Z"/>
  <polygon class="st0" points="38.47 82.99 10.47 80.77 10.47 77.44 38.01 79.15 38.38 79.51 38.47 82.99"/>
  <polygon class="st5" points="45.12 103.77 21.42 118.72 19.63 116.38 43.04 100.75 45.12 103.77"/>
  <path class="st0" d="M40.41,71.62c-.69,1.07-.82,2.26-1.11,3.46-.08.32.21.5-.41.42-8.47-3.49-17.34-5.9-26.17-8.34l.52-2.63.63-.07,26.54,7.16Z"/>
  <path class="st0" d="M38.72,86.89l.58,3.57c-9.39.3-18.68,2.25-27.97,3.3l-.46-2.76,27.85-4.11Z"/>
  <path class="st6" d="M100.28,108.54l22.56,11.97c2.44,1.3,2.92,4.59.94,6.52l-8.31,8.12c-1.55,1.51-4.09,1.25-5.3-.55l-14.28-21.34,4.4-4.72Z"/>
  <path class="st4" d="M245.19,102.65c-3.21,0-6.07-.64-8.58-1.91-2.51-1.28-4.49-3.13-5.95-5.57-1.46-2.43-2.18-5.38-2.19-8.84v-22.95s8.34,0,8.34,0v22.42c.02,3.16.81,5.51,2.39,7.04,1.58,1.53,3.58,2.29,5.98,2.29,2.41,0,4.39-.77,5.95-2.3,1.55-1.53,2.33-3.88,2.33-7.04v-22.42s8.34,0,8.34,0v22.95c.02,3.46-.71,6.41-2.16,8.84-1.45,2.43-3.44,4.29-5.94,5.57-2.51,1.28-5.34,1.92-8.5,1.92Z"/>
  <path class="st4" d="M308.92,101.79l-.02-38.45h-8.28s0,6.44,0,6.44c-.11-.2-.22-.4-.34-.6-1.23-1.98-2.85-3.58-4.86-4.81-2.01-1.23-4.46-1.84-7.37-1.84-3.31,0-6.28.87-8.92,2.6-2.63,1.73-4.71,4.11-6.24,7.12-1.53,3.01-2.29,6.45-2.29,10.31,0,3.91.77,7.37,2.3,10.38,1.53,3.01,3.61,5.38,6.25,7.11,2.63,1.73,5.61,2.59,8.92,2.59,2.91,0,5.37-.62,7.37-1.85,2.01-1.23,3.62-2.84,4.85-4.82.12-.2.22-.4.34-.6v6.43s8.28,0,8.28,0ZM297.74,91.86c-2.03,2.21-4.63,3.31-7.78,3.31-3.21,0-5.84-1.1-7.87-3.3-2.03-2.21-3.05-5.32-3.05-9.33,0-3.96,1.01-7.04,3.04-9.22,2.03-2.18,4.65-3.28,7.86-3.28,3.16,0,5.76,1.09,7.79,3.27,2.03,2.18,3.05,5.25,3.05,9.22,0,4.01-1.01,7.12-3.04,9.33Z"/>
  <path class="st4" d="M328.23,45.34l.03,56.44h-8.43s-.03-56.43-.03-56.43h8.43Z"/>
  <path class="st4" d="M343.29,56.17c-1.56,0-2.87-.46-3.95-1.39-1.08-.93-1.62-2.19-1.62-3.8,0-1.6.54-2.89,1.61-3.84s2.4-1.43,3.95-1.43,2.87.48,3.95,1.43c1.08.95,1.62,2.23,1.62,3.84,0,1.6-.54,2.87-1.62,3.8-1.08.93-2.4,1.39-3.95,1.4ZM347.43,63.31l.02,38.45h-8.35s-.02-38.45-.02-38.45h8.35Z"/>
  <path class="st4" d="M372.21,102.58c-2.46,0-4.77-.31-6.92-.94-2.16-.63-4.05-1.62-5.68-2.97-1.63-1.35-2.85-3.08-3.65-5.19l6.24-3.69c1,2.06,2.33,3.56,3.99,4.51,1.66.95,3.64,1.43,5.94,1.43,2.51,0,4.48-.42,5.91-1.25,1.43-.83,2.14-1.9,2.14-3.2,0-1.3-.6-2.31-1.81-3.01-1.2-.7-3.11-1.35-5.72-1.95l-3.76-.98c-4.12-1.05-7.11-2.54-8.99-4.47-1.88-1.93-2.82-4.33-2.83-7.18,0-3.31,1.34-6,4.02-8.05,2.68-2.06,6.31-3.09,10.87-3.09,2.51,0,4.79.35,6.85,1.05,2.06.7,3.84,1.73,5.34,3.08,1.51,1.35,2.71,3.03,3.61,5.04l-6.69,3.16c-.86-1.9-2.1-3.28-3.73-4.13-1.63-.85-3.42-1.28-5.38-1.28-2.11,0-3.78.38-5.01,1.13-1.23.75-1.84,1.73-1.84,2.94,0,.95.32,1.73.94,2.33.63.6,1.49,1.12,2.6,1.54,1.1.43,2.36.81,3.76,1.16l3.84.9c4.06,1,7.07,2.44,9.03,4.32,1.96,1.88,2.94,4.28,2.94,7.19,0,2.26-.65,4.26-1.95,6.02-1.3,1.76-3.16,3.13-5.57,4.1-2.4.98-5.24,1.47-8.5,1.47Z"/>
  <path class="st4" d="M417.12,94.5h-4.06c-1.6,0-2.8-.49-3.58-1.46-.78-.98-1.17-2.42-1.17-4.33v-18.59s8.79,0,8.79,0v-6.85s-8.81,0-8.81,0v-12.64s-8.28,4.82-8.28,4.82v7.83s-7.14,0-7.14,0v6.85s7.15,0,7.15,0v19.11c.01,3.76,1.04,6.79,3.1,9.07,2.06,2.28,5.07,3.42,9.03,3.42h4.97s0-7.23,0-7.23Z"/>
  <path class="st4" d="M459.41,83.38c0-.38,0-.76,0-1.17,0-3.91-.77-7.36-2.3-10.34-1.53-2.98-3.64-5.3-6.33-6.96-2.68-1.65-5.78-2.48-9.3-2.48-3.61,0-6.82.83-9.63,2.49-2.81,1.66-5,3.99-6.58,7-1.58,3.01-2.37,6.53-2.37,10.54,0,4.01.82,7.54,2.45,10.57,1.63,3.03,3.9,5.38,6.81,7.03,2.91,1.65,6.22,2.48,9.94,2.48,2.11,0,4.16-.25,6.17-.76,2.01-.5,3.85-1.31,5.53-2.41,1.68-1.1,3.2-2.53,4.55-4.29l-5.8-4.81c-1.25,1.8-2.74,3.1-4.47,3.88-1.73.78-3.68,1.17-5.83,1.17-2.16,0-4.05-.46-5.68-1.39-1.63-.93-2.92-2.34-3.88-4.25-.72-1.44-1.17-3.17-1.35-5.19l27.98-.02c.05-.35.08-.72.07-1.09ZM433.97,72.71c1.81-2.23,4.29-3.35,7.45-3.36,2.86,0,5.19,1.04,7,3.12,1.25,1.44,2.05,3.46,2.44,6.06h-19.28c.4-2.38,1.19-4.33,2.39-5.82Z"/>
  <path class="st4" d="M486.86,62.4h2.11s0,8.88,0,8.88h-3.91c-2.41,0-4.4.9-5.98,2.68s-2.37,4.23-2.37,7.34v20.39s-8.34,0-8.34,0l-.02-38.45h8.35s0,6.01,0,6.01c1.1-2.36,2.52-4.09,4.25-5.19,1.73-1.1,3.7-1.66,5.91-1.66Z"/>
  <path class="st4" d="M218.24,91.65l-2.48-1.32c.13-.22.29-.42.41-.64,2.28-4.09,3.42-8.82,3.42-14.19,0-5.42-1.15-10.16-3.43-14.22-2.29-4.06-5.42-7.23-9.41-9.52-3.99-2.28-8.59-3.42-13.81-3.42-5.22,0-9.85,1.15-13.88,3.43-4.04,2.29-7.18,5.46-9.44,9.53-2.25,4.07-3.38,8.81-3.38,14.22,0,5.37,1.15,10.09,3.43,14.18,2.29,4.09,5.43,7.27,9.45,9.55,4.01,2.28,8.63,3.42,13.85,3.42,5.27,0,9.88-1.15,13.84-3.43.62-.36,1.18-.78,1.76-1.18l1.67,2.49c.76,1.14,2.37,1.3,3.35.35l5.25-5.14c1.25-1.22.95-3.3-.6-4.12ZM201.95,92.26c-2.63,1.53-5.66,2.3-9.07,2.3-3.36,0-6.35-.76-8.95-2.29-2.61-1.53-4.68-3.72-6.21-6.58-1.53-2.86-2.3-6.24-2.3-10.16,0-3.91.76-7.3,2.29-10.16,1.53-2.86,3.6-5.06,6.21-6.59,2.61-1.53,5.59-2.3,8.95-2.3,3.41,0,6.43.76,9.07,2.29,2.64,1.53,4.71,3.71,6.21,6.54,1.51,2.83,2.26,6.23,2.26,10.2,0,3.96-.75,7.36-2.25,10.2-.08.16-.19.3-.28.45l-3.9-2.07-2.78,2.99,2.62,3.91c-.59.47-1.21.89-1.87,1.27Z"/>
</svg>